# Blender v2.82 (sub 7) OBJ File: 'ship.blend'
# www.blender.org
o fore_Plane.001
v 0.344603 0.375472 0.048965
v 0.344603 0.657177 0.030077
v 0.344603 0.460691 0.055956
v 0.245387 0.324988 0.114321
v 0.245387 0.699930 0.090617
v 0.245387 0.460691 0.126373
v 0.232505 0.324167 0.083579
v 0.331721 0.374651 0.018222
v 0.331721 0.459869 0.025214
v 0.331721 0.656355 -0.000666
v 0.232505 0.699109 0.059874
v 0.232505 0.459869 0.095630
v -0.344603 0.375472 0.048965
v -0.344603 0.657177 0.030077
v -0.344603 0.460691 0.055956
v 0.000000 0.315101 0.154319
v 0.000000 0.701907 0.127737
v 0.000000 0.460691 0.177626
v -0.245387 0.324988 0.114321
v -0.245387 0.699930 0.090617
v -0.245387 0.460691 0.126373
v -0.232505 0.324167 0.083579
v -0.331721 0.374651 0.018222
v -0.331721 0.459869 0.025214
v -0.331721 0.656355 -0.000666
v -0.232505 0.699109 0.059874
v 0.000000 0.701086 0.096994
v -0.232505 0.459869 0.095630
v 0.000000 0.459869 0.146883
v 0.000000 0.314280 0.123576
v 0.245387 0.324988 0.114321
v 0.245387 0.324988 0.114321
v 0.245387 0.324988 0.114321
v 0.344603 0.375472 0.048965
v 0.344603 0.375472 0.048965
v 0.344603 0.460691 0.055956
v 0.344603 0.460691 0.055956
v 0.344603 0.460691 0.055956
v 0.344603 0.657177 0.030077
v 0.344603 0.657177 0.030077
v 0.245387 0.699930 0.090617
v 0.245387 0.699930 0.090617
v 0.245387 0.699930 0.090617
v 0.000000 0.701907 0.127737
v 0.000000 0.701907 0.127737
v 0.000000 0.701907 0.127737
v 0.245387 0.460691 0.126373
v 0.245387 0.460691 0.126373
v 0.245387 0.460691 0.126373
v 0.000000 0.460691 0.177626
v 0.000000 0.460691 0.177626
v 0.000000 0.460691 0.177626
v 0.000000 0.315101 0.154319
v 0.000000 0.315101 0.154319
v 0.000000 0.315101 0.154319
v 0.232505 0.324167 0.083579
v 0.232505 0.324167 0.083579
v 0.232505 0.324167 0.083579
v 0.331721 0.374651 0.018222
v 0.331721 0.374651 0.018222
v 0.331721 0.459869 0.025214
v 0.331721 0.459869 0.025214
v 0.331721 0.459869 0.025214
v 0.331721 0.656355 -0.000666
v 0.331721 0.656355 -0.000666
v 0.232505 0.699109 0.059874
v 0.232505 0.699109 0.059874
v 0.232505 0.699109 0.059874
v 0.000000 0.701086 0.096994
v 0.000000 0.701086 0.096994
v 0.000000 0.701086 0.096994
v 0.232505 0.459869 0.095630
v 0.232505 0.459869 0.095630
v 0.232505 0.459869 0.095630
v 0.000000 0.459869 0.146883
v 0.000000 0.459869 0.146883
v 0.000000 0.459869 0.146883
v 0.000000 0.314280 0.123576
v 0.000000 0.314280 0.123576
v 0.000000 0.314280 0.123576
v -0.245387 0.324988 0.114321
v -0.245387 0.324988 0.114321
v -0.245387 0.324988 0.114321
v -0.344603 0.375472 0.048965
v -0.344603 0.375472 0.048965
v -0.344603 0.460691 0.055956
v -0.344603 0.460691 0.055956
v -0.344603 0.460691 0.055956
v -0.344603 0.657177 0.030077
v -0.344603 0.657177 0.030077
v -0.245387 0.699930 0.090617
v -0.245387 0.699930 0.090617
v -0.245387 0.699930 0.090617
v -0.245387 0.460691 0.126373
v -0.245387 0.460691 0.126373
v -0.245387 0.460691 0.126373
v -0.232505 0.324167 0.083579
v -0.232505 0.324167 0.083579
v -0.232505 0.324167 0.083579
v -0.331721 0.374651 0.018222
v -0.331721 0.374651 0.018222
v -0.331721 0.459869 0.025214
v -0.331721 0.459869 0.025214
v -0.331721 0.459869 0.025214
v -0.331721 0.656355 -0.000666
v -0.331721 0.656355 -0.000666
v -0.232505 0.699109 0.059874
v -0.232505 0.699109 0.059874
v -0.232505 0.699109 0.059874
v -0.232505 0.459869 0.095630
v -0.232505 0.459869 0.095630
v -0.232505 0.459869 0.095630
vt 0.120039 0.125961
vt 0.153494 0.125961
vt 0.153494 0.192871
vt 0.120039 0.192871
vt 0.120039 0.059051
vt 0.153494 0.059051
vt 0.153494 0.125961
vt 0.120039 0.125961
vt 0.086584 0.059051
vt 0.120039 0.059051
vt 0.120039 0.125961
vt 0.086584 0.125961
vt 0.086584 0.125961
vt 0.120039 0.125961
vt 0.120039 0.192871
vt 0.086584 0.192871
vt 0.120039 0.125961
vt 0.120039 0.192871
vt 0.153494 0.192871
vt 0.153494 0.125961
vt 0.120039 0.059051
vt 0.120039 0.125961
vt 0.153494 0.125961
vt 0.153494 0.059051
vt 0.086584 0.059051
vt 0.086584 0.125961
vt 0.120039 0.125961
vt 0.120039 0.059051
vt 0.086584 0.125961
vt 0.086584 0.192871
vt 0.120039 0.192871
vt 0.120039 0.125961
vt 0.153494 0.125961
vt 0.153494 0.125961
vt 0.153494 0.192871
vt 0.153494 0.192871
vt 0.153494 0.192871
vt 0.153494 0.192871
vt 0.120039 0.192871
vt 0.120039 0.192871
vt 0.153494 0.059051
vt 0.153494 0.059051
vt 0.153494 0.125961
vt 0.153494 0.125961
vt 0.120039 0.059051
vt 0.120039 0.059051
vt 0.153494 0.059051
vt 0.153494 0.059051
vt 0.086584 0.059051
vt 0.086584 0.059051
vt 0.120039 0.059051
vt 0.120039 0.059051
vt 0.120039 0.192871
vt 0.120039 0.192871
vt 0.086584 0.192871
vt 0.086584 0.192871
vt 0.120039 0.125961
vt 0.120039 0.192871
vt 0.153494 0.192871
vt 0.153494 0.125961
vt 0.120039 0.059051
vt 0.120039 0.125961
vt 0.153494 0.125961
vt 0.153494 0.059051
vt 0.086584 0.059051
vt 0.086584 0.125961
vt 0.120039 0.125961
vt 0.120039 0.059051
vt 0.086584 0.125961
vt 0.086584 0.192871
vt 0.120039 0.192871
vt 0.120039 0.125961
vt 0.120039 0.125961
vt 0.153494 0.125961
vt 0.153494 0.192871
vt 0.120039 0.192871
vt 0.120039 0.059051
vt 0.153494 0.059051
vt 0.153494 0.125961
vt 0.120039 0.125961
vt 0.086584 0.059051
vt 0.120039 0.059051
vt 0.120039 0.125961
vt 0.086584 0.125961
vt 0.086584 0.125961
vt 0.120039 0.125961
vt 0.120039 0.192871
vt 0.086584 0.192871
vt 0.153494 0.125961
vt 0.153494 0.192871
vt 0.153494 0.192871
vt 0.153494 0.125961
vt 0.153494 0.192871
vt 0.120039 0.192871
vt 0.120039 0.192871
vt 0.153494 0.192871
vt 0.153494 0.059051
vt 0.153494 0.125961
vt 0.153494 0.125961
vt 0.153494 0.059051
vt 0.120039 0.059051
vt 0.153494 0.059051
vt 0.153494 0.059051
vt 0.120039 0.059051
vt 0.086584 0.059051
vt 0.120039 0.059051
vt 0.120039 0.059051
vt 0.086584 0.059051
vt 0.120039 0.192871
vt 0.086584 0.192871
vt 0.086584 0.192871
vt 0.120039 0.192871
vn 0.5644 0.1156 0.8174
vn 0.5754 -0.0702 0.8148
vn 0.1838 -0.1226 0.9753
vn 0.1752 0.1728 0.9692
vn -0.5644 -0.1156 -0.8174
vn -0.5754 0.0702 -0.8148
vn -0.1936 0.1224 -0.9734
vn -0.1846 -0.1725 -0.9676
vn 0.9216 -0.0507 -0.3848
vn 0.3098 0.9381 -0.1549
vn 0.9215 0.0317 -0.3870
vn 0.3779 -0.9161 -0.1339
vn 0.0442 -0.9989 0.0174
vn 0.0040 0.9996 -0.0275
vn -0.5644 0.1156 0.8174
vn -0.5754 -0.0702 0.8148
vn -0.1838 -0.1226 0.9753
vn -0.1752 0.1728 0.9692
vn 0.5644 -0.1156 -0.8174
vn 0.5754 0.0702 -0.8148
vn 0.1936 0.1224 -0.9734
vn 0.1846 -0.1725 -0.9676
vn -0.9216 -0.0507 -0.3848
vn -0.3098 0.9381 -0.1549
vn -0.9215 0.0317 -0.3870
vn -0.3779 -0.9161 -0.1339
vn -0.0442 -0.9989 0.0174
vn -0.0040 0.9996 -0.0275
s off
f 48/1/1 36/2/1 39/3/1 42/4/1
f 31/5/2 34/6/2 37/7/2 49/8/2
f 53/9/3 32/10/3 47/11/3 50/12/3
f 51/13/4 6/14/4 41/15/4 44/16/4
f 73/17/5 67/18/5 64/19/5 61/20/5
f 56/21/6 74/22/6 62/23/6 59/24/6
f 78/25/7 75/26/7 72/27/7 57/28/7
f 76/29/8 69/30/8 66/31/8 12/32/8
f 38/33/9 63/34/9 65/35/9 40/36/9
f 2/37/10 10/38/10 68/39/10 43/40/10
f 35/41/11 60/42/11 9/43/11 3/44/11
f 33/45/12 58/46/12 8/47/12 1/48/12
f 54/49/13 79/50/13 7/51/13 4/52/13
f 5/53/14 11/54/14 70/55/14 45/56/14
f 95/57/15 92/58/15 89/59/15 86/60/15
f 81/61/16 96/62/16 87/63/16 84/64/16
f 55/65/17 52/66/17 94/67/17 82/68/17
f 18/69/18 46/70/18 91/71/18 21/72/18
f 111/73/19 102/74/19 105/75/19 108/76/19
f 97/77/20 100/78/20 103/79/20 112/80/20
f 80/81/21 98/82/21 110/83/21 77/84/21
f 29/85/22 28/86/22 107/87/22 71/88/22
f 88/89/23 90/90/23 106/91/23 104/92/23
f 14/93/24 93/94/24 109/95/24 25/96/24
f 85/97/25 15/98/25 24/99/25 101/100/25
f 83/101/26 13/102/26 23/103/26 99/104/26
f 16/105/27 19/106/27 22/107/27 30/108/27
f 20/109/28 17/110/28 27/111/28 26/112/28
o hull_Cube.001
v 0.232571 -0.139735 0.000000
v 0.294587 0.242498 0.000000
v 0.236066 0.054109 0.000000
v -0.232571 -0.139735 0.000000
v -0.294587 0.242498 0.000000
v 0.000000 -0.139735 0.561074
v 0.000000 0.304704 0.735005
v 0.000000 -0.139735 -0.561074
v 0.000000 0.264097 -0.667615
v -0.236066 0.054109 0.000000
v 0.000000 0.054109 0.609485
v 0.000000 0.054109 -0.609485
v 0.000000 0.303770 0.734537
v 0.000000 0.242498 0.000000
v 0.000000 0.264081 -0.667132
v 0.236066 0.054109 0.000000
v 0.236066 0.054109 0.000000
v 0.236066 0.054109 0.000000
v 0.236066 0.054109 0.000000
v 0.236066 0.054109 0.000000
v 0.294587 0.242498 0.000000
v 0.294587 0.242498 0.000000
v 0.294587 0.242498 0.000000
v 0.000000 0.304704 0.735005
v 0.000000 0.304704 0.735005
v 0.000000 0.304704 0.735005
v 0.000000 0.304704 0.735005
v 0.000000 0.304704 0.735005
v 0.000000 0.054109 0.609485
v 0.000000 0.054109 0.609485
v 0.000000 0.054109 0.609485
v 0.000000 -0.139735 0.561074
v 0.000000 0.264081 -0.667132
v 0.000000 0.264097 -0.667615
v 0.000000 0.264097 -0.667615
v 0.000000 0.264097 -0.667615
v 0.000000 0.264097 -0.667615
v 0.000000 0.264097 -0.667615
v 0.000000 0.054109 -0.609485
v 0.000000 0.054109 -0.609485
v 0.000000 0.054109 -0.609485
v 0.000000 -0.139735 -0.561074
v 0.232571 -0.139735 0.000000
v 0.000000 0.303770 0.734537
v 0.000000 0.242498 0.000000
v 0.000000 0.242498 0.000000
v 0.000000 0.242498 0.000000
v -0.236066 0.054109 0.000000
v -0.236066 0.054109 0.000000
v -0.236066 0.054109 0.000000
v -0.236066 0.054109 0.000000
v -0.236066 0.054109 0.000000
v -0.294587 0.242498 0.000000
v -0.294587 0.242498 0.000000
v -0.294587 0.242498 0.000000
v -0.232571 -0.139735 0.000000
vt 0.589467 0.383050
vt 0.626572 0.440899
vt 0.626398 0.440859
vt 0.579970 0.430138
vt 0.586037 0.318329
vt 0.625900 0.312367
vt 0.589467 0.383050
vt 0.549265 0.323352
vt 0.586037 0.318329
vt 0.589467 0.383050
vt 0.552840 0.383502
vt 0.552840 0.383502
vt 0.589467 0.383050
vt 0.579970 0.430138
vt 0.543680 0.426280
vt 0.626572 0.378441
vt 0.682691 0.378437
vt 0.682712 0.451398
vt 0.626572 0.440899
vt 0.589467 0.383050
vt 0.626572 0.384670
vt 0.589467 0.383050
vt 0.625900 0.312367
vt 0.626572 0.384670
vt 0.682712 0.312414
vt 0.682691 0.378437
vt 0.626572 0.378441
vt 0.682671 0.312367
vt 0.589467 0.383050
vt 0.579970 0.430138
vt 0.626398 0.440859
vt 0.626572 0.440899
vt 0.586037 0.318329
vt 0.589467 0.383050
vt 0.625900 0.312367
vt 0.549265 0.323352
vt 0.552840 0.383502
vt 0.589467 0.383050
vt 0.586037 0.318329
vt 0.552840 0.383502
vt 0.543680 0.426280
vt 0.579970 0.430138
vt 0.589467 0.383050
vt 0.626572 0.378441
vt 0.682712 0.451398
vt 0.682691 0.378437
vt 0.626572 0.440899
vt 0.626572 0.384670
vt 0.589467 0.383050
vt 0.589467 0.383050
vt 0.626572 0.384670
vt 0.625900 0.312367
vt 0.682712 0.312414
vt 0.682671 0.312367
vt 0.626572 0.378441
vt 0.682691 0.378437
vn 0.9176 -0.1780 0.3554
vn 0.9279 -0.0995 -0.3594
vn 0.9270 -0.0547 -0.3711
vn 0.9270 -0.0547 0.3711
vn 0.0000 0.9964 -0.0843
vn 0.8843 -0.2747 0.3777
vn 0.8770 -0.2724 -0.3958
vn 0.0000 0.9995 0.0323
vn -0.9176 -0.1780 0.3554
vn -0.9279 -0.0995 -0.3594
vn -0.9270 -0.0547 -0.3711
vn -0.9270 -0.0547 0.3711
vn -0.8843 -0.2747 0.3777
vn -0.8770 -0.2724 -0.3958
s off
f 131/113/29 137/114/29 156/115/29 142/116/29
f 152/117/30 148/118/30 130/119/30
f 154/120/31 151/121/31 129/122/31 113/123/31
f 155/124/32 115/125/32 141/126/32 144/127/32
f 134/128/33 157/129/33 136/130/33
f 140/131/34 128/132/34 133/133/34
f 132/134/35 147/135/35 135/136/35
f 145/137/36 158/138/36 114/139/36 146/140/36
f 163/141/37 143/142/37 125/143/37 139/144/37
f 153/145/38 162/146/38 150/147/38
f 120/148/39 116/149/39 161/150/39 124/151/39
f 168/152/40 118/153/40 123/154/40 164/155/40
f 166/156/33 138/157/33 159/158/33
f 119/159/41 165/160/41 160/161/41
f 122/162/42 167/163/42 149/164/42
f 127/165/36 121/166/36 117/167/36 126/168/36
o jib_Plane
v 0.013743 0.348950 0.638635
v 0.013732 0.316336 0.303350
v 0.033317 0.482061 0.547733
v 0.013732 0.589908 0.318119
v 0.013732 0.567740 0.291229
v 0.013732 0.336512 0.280152
v 0.013732 0.448930 0.297689
v 0.013749 0.372009 0.664656
v -0.009796 0.372959 0.665702
v -0.009803 0.349899 0.639682
v -0.009814 0.317285 0.304397
v -0.009814 0.590858 0.319166
v 0.009772 0.483010 0.548779
v -0.009814 0.449879 0.298736
v -0.009814 0.568689 0.292275
v -0.009814 0.337462 0.281199
v 0.013749 0.372009 0.664656
v 0.013749 0.372009 0.664656
v 0.013743 0.348950 0.638635
v 0.013743 0.348950 0.638635
v 0.013732 0.316336 0.303350
v 0.013732 0.316336 0.303350
v 0.013732 0.316336 0.303350
v 0.013732 0.589908 0.318119
v 0.013732 0.589908 0.318119
v 0.033317 0.482061 0.547733
v 0.033317 0.482061 0.547733
v 0.033317 0.482061 0.547733
v 0.033317 0.482061 0.547733
v 0.033317 0.482061 0.547733
v 0.013732 0.448930 0.297689
v 0.013732 0.448930 0.297689
v 0.013732 0.448930 0.297689
v 0.013732 0.567740 0.291229
v 0.013732 0.567740 0.291229
v 0.013732 0.336512 0.280152
v 0.013732 0.336512 0.280152
v 0.013732 0.336512 0.280152
v -0.009796 0.372959 0.665702
v -0.009796 0.372959 0.665702
v -0.009803 0.349899 0.639682
v -0.009803 0.349899 0.639682
v -0.009814 0.317285 0.304397
v -0.009814 0.317285 0.304397
v -0.009814 0.317285 0.304397
v -0.009814 0.590858 0.319166
v -0.009814 0.590858 0.319166
v 0.009772 0.483010 0.548779
v 0.009772 0.483010 0.548779
v 0.009772 0.483010 0.548779
v 0.009772 0.483010 0.548779
v 0.009772 0.483010 0.548779
v -0.009814 0.449879 0.298736
v -0.009814 0.449879 0.298736
v -0.009814 0.449879 0.298736
v -0.009814 0.568689 0.292275
v -0.009814 0.568689 0.292275
v -0.009814 0.337462 0.281199
v -0.009814 0.337462 0.281199
v -0.009814 0.337462 0.281199
vt 0.907237 0.353326
vt 0.907237 0.377793
vt 0.878995 0.400316
vt 0.811312 0.400316
vt 0.811312 0.304390
vt 0.907237 0.304390
vt 0.811312 0.400316
vt 0.811312 0.352353
vt 0.907237 0.304390
vt 0.907237 0.328858
vt 0.811312 0.400316
vt 0.907237 0.328858
vt 0.907237 0.353326
vt 0.811312 0.400316
vt 0.907237 0.353326
vt 0.811312 0.400316
vt 0.878995 0.400316
vt 0.907237 0.377793
vt 0.811312 0.304390
vt 0.811312 0.352353
vt 0.811312 0.400316
vt 0.907237 0.304390
vt 0.907237 0.304390
vt 0.811312 0.400316
vt 0.907237 0.328858
vt 0.907237 0.328858
vt 0.811312 0.400316
vt 0.907237 0.353326
vt 0.907237 0.328858
vt 0.907237 0.328858
vt 0.907237 0.353326
vt 0.907237 0.353326
vt 0.907237 0.377793
vt 0.907237 0.377793
vt 0.878995 0.400316
vt 0.878995 0.400316
vt 0.878995 0.400316
vt 0.878995 0.400316
vt 0.811312 0.400316
vt 0.811312 0.400316
vt 0.811312 0.352353
vt 0.811312 0.352353
vt 0.811312 0.304390
vt 0.811312 0.304390
vt 0.811312 0.400316
vt 0.811312 0.400316
vt 0.811312 0.352353
vt 0.811312 0.352353
vt 0.907237 0.304390
vt 0.907237 0.304390
vt 0.907237 0.328858
vt 0.907237 0.328858
vt 0.907237 0.353326
vt 0.907237 0.353326
vt 0.907237 0.377793
vt 0.907237 0.377793
vt 0.811312 0.304390
vt 0.811312 0.304390
vt 0.907237 0.304390
vt 0.907237 0.304390
vn 0.9973 0.0105 -0.0726
vn 0.9911 -0.1319 0.0203
vn 0.9977 -0.0517 -0.0449
vn 0.9967 0.0124 -0.0797
vn -0.9973 -0.0105 0.0726
vn -0.9911 0.1319 -0.0203
vn -0.9977 0.0517 0.0449
vn -0.9967 -0.0124 0.0797
vn -0.0377 0.1540 -0.9873
vn 0.0028 0.7716 -0.6361
vn 0.0552 0.9056 0.4206
vn -0.0007 -0.7484 0.6632
vn 0.0597 0.7219 0.6894
vn -0.0595 -0.7532 -0.6551
vn -0.0465 -0.0542 -0.9974
vn -0.0358 -0.9947 0.0968
s off
f 199/169/43 202/170/43 192/171/43 194/172/43
f 187/173/44 189/174/44 195/175/44 185/176/44
f 190/177/45 204/178/45 196/179/45
f 205/180/46 200/181/46 171/182/46
f 221/183/47 216/184/47 214/185/47 224/186/47
f 209/187/48 207/188/48 217/189/48 211/190/48
f 212/191/49 218/192/49 226/193/49
f 227/194/50 181/195/50 222/196/50
f 206/197/51 228/198/51 223/199/51 201/200/51
f 203/201/52 225/202/52 215/203/52 193/204/52
f 172/205/53 180/206/53 219/207/53 197/208/53
f 186/209/54 208/210/54 210/211/54 188/212/54
f 198/213/55 220/214/55 177/215/55 176/216/55
f 191/217/56 213/218/56 184/219/56 174/220/56
f 175/221/57 182/222/57 183/223/57 173/224/57
f 169/225/58 178/226/58 179/227/58 170/228/58
o main_Plane.003
v 0.391008 0.381715 -0.292611
v 0.391008 0.746068 -0.317640
v 0.391008 0.514886 -0.283347
v 0.282951 0.318806 -0.218457
v 0.282951 0.792621 -0.249868
v 0.282951 0.514886 -0.202488
v 0.271270 0.317694 -0.244547
v 0.379327 0.380603 -0.318700
v 0.379327 0.513775 -0.309436
v 0.379327 0.744956 -0.343729
v 0.271270 0.791509 -0.275958
v 0.271270 0.513775 -0.228577
v -0.391008 0.381715 -0.292611
v -0.391008 0.746068 -0.317640
v -0.391008 0.514886 -0.283347
v 0.000000 0.304874 -0.165456
v 0.000000 0.795127 -0.200680
v 0.000000 0.514886 -0.134572
v -0.282951 0.318806 -0.218457
v -0.282951 0.792621 -0.249868
v -0.282951 0.514886 -0.202488
v -0.271270 0.317694 -0.244547
v -0.379327 0.380603 -0.318700
v -0.379327 0.513775 -0.309436
v -0.379327 0.744956 -0.343729
v -0.271270 0.791509 -0.275958
v 0.000000 0.794015 -0.226769
v -0.271270 0.513775 -0.228577
v 0.000000 0.513775 -0.160661
v 0.000000 0.303762 -0.191546
v 0.282951 0.318806 -0.218457
v 0.282951 0.318806 -0.218457
v 0.282951 0.318806 -0.218457
v 0.391008 0.381715 -0.292611
v 0.391008 0.381715 -0.292611
v 0.391008 0.514886 -0.283347
v 0.391008 0.514886 -0.283347
v 0.391008 0.514886 -0.283347
v 0.391008 0.746068 -0.317640
v 0.391008 0.746068 -0.317640
v 0.282951 0.792621 -0.249868
v 0.282951 0.792621 -0.249868
v 0.282951 0.792621 -0.249868
v 0.000000 0.795127 -0.200680
v 0.000000 0.795127 -0.200680
v 0.000000 0.795127 -0.200680
v 0.282951 0.514886 -0.202488
v 0.282951 0.514886 -0.202488
v 0.282951 0.514886 -0.202488
v 0.000000 0.514886 -0.134572
v 0.000000 0.514886 -0.134572
v 0.000000 0.514886 -0.134572
v 0.000000 0.304874 -0.165456
v 0.000000 0.304874 -0.165456
v 0.000000 0.304874 -0.165456
v 0.271270 0.317694 -0.244547
v 0.271270 0.317694 -0.244547
v 0.271270 0.317694 -0.244547
v 0.379327 0.380603 -0.318700
v 0.379327 0.380603 -0.318700
v 0.379327 0.513775 -0.309436
v 0.379327 0.513775 -0.309436
v 0.379327 0.513775 -0.309436
v 0.379327 0.744956 -0.343729
v 0.379327 0.744956 -0.343729
v 0.271270 0.791509 -0.275958
v 0.271270 0.791509 -0.275958
v 0.271270 0.791509 -0.275958
v 0.000000 0.794015 -0.226769
v 0.000000 0.794015 -0.226769
v 0.000000 0.794015 -0.226769
v 0.271270 0.513775 -0.228577
v 0.271270 0.513775 -0.228577
v 0.271270 0.513775 -0.228577
v 0.000000 0.513775 -0.160661
v 0.000000 0.513775 -0.160661
v 0.000000 0.513775 -0.160661
v 0.000000 0.303762 -0.191546
v 0.000000 0.303762 -0.191546
v 0.000000 0.303762 -0.191546
v -0.282951 0.318806 -0.218457
v -0.282951 0.318806 -0.218457
v -0.282951 0.318806 -0.218457
v -0.391008 0.381715 -0.292611
v -0.391008 0.381715 -0.292611
v -0.391008 0.514886 -0.283347
v -0.391008 0.514886 -0.283347
v -0.391008 0.514886 -0.283347
v -0.391008 0.746068 -0.317640
v -0.391008 0.746068 -0.317640
v -0.282951 0.792621 -0.249868
v -0.282951 0.792621 -0.249868
v -0.282951 0.792621 -0.249868
v -0.282951 0.514886 -0.202488
v -0.282951 0.514886 -0.202488
v -0.282951 0.514886 -0.202488
v -0.271270 0.317694 -0.244547
v -0.271270 0.317694 -0.244547
v -0.271270 0.317694 -0.244547
v -0.379327 0.380603 -0.318700
v -0.379327 0.380603 -0.318700
v -0.379327 0.513775 -0.309436
v -0.379327 0.513775 -0.309436
v -0.379327 0.513775 -0.309436
v -0.379327 0.744956 -0.343729
v -0.379327 0.744956 -0.343729
v -0.271270 0.791509 -0.275958
v -0.271270 0.791509 -0.275958
v -0.271270 0.791509 -0.275958
v -0.271270 0.513775 -0.228577
v -0.271270 0.513775 -0.228577
v -0.271270 0.513775 -0.228577
vt 0.385804 0.121039
vt 0.426808 0.121039
vt 0.426808 0.203048
vt 0.385804 0.203048
vt 0.385804 0.039031
vt 0.426808 0.039031
vt 0.426808 0.121039
vt 0.385804 0.121039
vt 0.344800 0.039031
vt 0.385804 0.039031
vt 0.385804 0.121039
vt 0.344800 0.121039
vt 0.344800 0.121039
vt 0.385804 0.121039
vt 0.385804 0.203048
vt 0.344800 0.203048
vt 0.385804 0.121039
vt 0.385804 0.203048
vt 0.426808 0.203048
vt 0.426808 0.121039
vt 0.385804 0.039031
vt 0.385804 0.121039
vt 0.426808 0.121039
vt 0.426808 0.039031
vt 0.344800 0.039031
vt 0.344800 0.121039
vt 0.385804 0.121039
vt 0.385804 0.039031
vt 0.344800 0.121039
vt 0.344800 0.203048
vt 0.385804 0.203048
vt 0.385804 0.121039
vt 0.426808 0.203048
vt 0.426808 0.203048
vt 0.385804 0.203048
vt 0.385804 0.203048
vt 0.426808 0.039031
vt 0.426808 0.039031
vt 0.426808 0.121039
vt 0.426808 0.121039
vt 0.385804 0.039031
vt 0.385804 0.039031
vt 0.426808 0.039031
vt 0.426808 0.039031
vt 0.344800 0.039031
vt 0.344800 0.039031
vt 0.385804 0.039031
vt 0.385804 0.039031
vt 0.385804 0.203048
vt 0.385804 0.203048
vt 0.344800 0.203048
vt 0.344800 0.203048
vt 0.426808 0.121039
vt 0.426808 0.121039
vt 0.426808 0.203048
vt 0.426808 0.203048
vt 0.385804 0.121039
vt 0.385804 0.203048
vt 0.426808 0.203048
vt 0.426808 0.121039
vt 0.385804 0.039031
vt 0.385804 0.121039
vt 0.426808 0.121039
vt 0.426808 0.039031
vt 0.344800 0.039031
vt 0.344800 0.121039
vt 0.385804 0.121039
vt 0.385804 0.039031
vt 0.344800 0.121039
vt 0.344800 0.203048
vt 0.385804 0.203048
vt 0.385804 0.121039
vt 0.385804 0.121039
vt 0.426808 0.121039
vt 0.426808 0.203048
vt 0.385804 0.203048
vt 0.385804 0.039031
vt 0.426808 0.039031
vt 0.426808 0.121039
vt 0.385804 0.121039
vt 0.344800 0.039031
vt 0.385804 0.039031
vt 0.385804 0.121039
vt 0.344800 0.121039
vt 0.344800 0.121039
vt 0.385804 0.121039
vt 0.385804 0.203048
vt 0.344800 0.203048
vt 0.426808 0.203048
vt 0.385804 0.203048
vt 0.385804 0.203048
vt 0.426808 0.203048
vt 0.426808 0.039031
vt 0.426808 0.121039
vt 0.426808 0.121039
vt 0.426808 0.039031
vt 0.385804 0.039031
vt 0.426808 0.039031
vt 0.426808 0.039031
vt 0.385804 0.039031
vt 0.344800 0.039031
vt 0.385804 0.039031
vt 0.385804 0.039031
vt 0.344800 0.039031
vt 0.385804 0.203048
vt 0.344800 0.203048
vt 0.344800 0.203048
vt 0.385804 0.203048
vt 0.426808 0.121039
vt 0.426808 0.203048
vt 0.426808 0.203048
vt 0.426808 0.121039
vn 0.5806 0.1290 0.8039
vn 0.5935 -0.0615 0.8025
vn 0.2103 -0.1121 0.9712
vn 0.1996 0.1953 0.9602
vn -0.5806 -0.1290 -0.8039
vn -0.5935 0.0615 -0.8025
vn -0.2189 0.1118 -0.9693
vn -0.2078 -0.1950 -0.9585
vn 0.2964 0.9393 -0.1727
vn 0.9119 0.0285 -0.4095
vn 0.4189 -0.8957 -0.1494
vn 0.0559 -0.9980 0.0300
vn 0.0014 0.9991 -0.0429
vn 0.9120 -0.0602 -0.4058
vn -0.5806 0.1290 0.8039
vn -0.5935 -0.0615 0.8025
vn -0.2103 -0.1121 0.9712
vn -0.1996 0.1953 0.9602
vn 0.5806 -0.1290 -0.8039
vn 0.5935 0.0615 -0.8025
vn 0.2189 0.1118 -0.9693
vn 0.2078 -0.1950 -0.9585
vn -0.2964 0.9393 -0.1727
vn -0.9119 0.0285 -0.4095
vn -0.4189 -0.8957 -0.1494
vn -0.0559 -0.9980 0.0300
vn -0.0014 0.9991 -0.0429
vn -0.9120 -0.0602 -0.4058
s off
f 276/229/59 264/230/59 267/231/59 270/232/59
f 259/233/60 262/234/60 265/235/60 277/236/60
f 281/237/61 260/238/61 275/239/61 278/240/61
f 279/241/62 234/242/62 269/243/62 272/244/62
f 301/245/63 295/246/63 292/247/63 289/248/63
f 284/249/64 302/250/64 290/251/64 287/252/64
f 306/253/65 303/254/65 300/255/65 285/256/65
f 304/257/66 297/258/66 294/259/66 240/260/66
f 268/261/67 293/262/67 296/263/67 271/264/67
f 263/265/68 288/266/68 291/267/68 266/268/68
f 261/269/69 286/270/69 236/271/69 229/272/69
f 282/273/70 307/274/70 235/275/70 232/276/70
f 233/277/71 239/278/71 298/279/71 273/280/71
f 231/281/72 237/282/72 238/283/72 230/284/72
f 323/285/73 320/286/73 317/287/73 314/288/73
f 309/289/74 324/290/74 315/291/74 312/292/74
f 283/293/75 280/294/75 322/295/75 310/296/75
f 246/297/76 274/298/76 319/299/76 249/300/76
f 339/301/77 330/302/77 333/303/77 336/304/77
f 325/305/78 328/306/78 331/307/78 340/308/78
f 308/309/79 326/310/79 338/311/79 305/312/79
f 257/313/80 256/314/80 335/315/80 299/316/80
f 318/317/81 321/318/81 337/319/81 334/320/81
f 313/321/82 316/322/82 332/323/82 329/324/82
f 311/325/83 241/326/83 251/327/83 327/328/83
f 244/329/84 247/330/84 250/331/84 258/332/84
f 248/333/85 245/334/85 255/335/85 254/336/85
f 243/337/86 242/338/86 253/339/86 252/340/86
